<?xml version="1.0" encoding="iso-8859-1"?>
<!-- Generator: Adobe Illustrator 17.1.0, SVG Export Plug-In . SVG Version: 6.00 Build 0)  -->
<!DOCTYPE svg PUBLIC "-//W3C//DTD SVG 1.1//EN" "http://www.w3.org/Graphics/SVG/1.1/DTD/svg11.dtd">
<svg version="1.1" id="Capa_1" xmlns="http://www.w3.org/2000/svg" xmlns:xlink="http://www.w3.org/1999/xlink" x="0px" y="0px"
	 viewBox="0 0 204.041 204.041" style="enable-background:new 0 0 204.041 204.041;" xml:space="preserve">
<path d="M166.952,18.897H37.089C16.638,18.897,0,35.536,0,55.987v55.631c0,20.451,16.638,37.089,37.089,37.089h73.275l0.114,31.454
	c0.007,1.956,1.153,3.728,2.935,4.536c0.661,0.3,1.365,0.446,2.064,0.446c1.183,0,2.353-0.42,3.28-1.226l40.529-35.211h7.665
	c20.451,0,37.089-16.638,37.089-37.089V55.987C204.041,35.536,187.403,18.897,166.952,18.897z M111.969,77.896
	c10.907,0,19.78,8.873,19.78,19.78s-8.873,19.78-19.78,19.78h-4.948v5.195c0,2.762-2.238,5-5,5s-5-2.238-5-5v-5.195H77.293
	c-2.762,0-5-2.238-5-5s2.238-5,5-5h19.728V87.896h-4.95c-10.905,0-19.777-8.872-19.777-19.777c0-10.911,8.872-19.783,19.777-19.783
	h4.95v-3.6c0-2.762,2.238-5,5-5s5,2.238,5,5v3.6h19.729c2.762,0,5,2.238,5,5s-2.238,5-5,5h-19.729v19.561H111.969z M92.07,58.335
	h4.95v19.561h-4.95c-5.392,0-9.777-4.386-9.777-9.783C82.293,62.721,86.679,58.335,92.07,58.335z M107.021,87.896h4.948
	c5.393,0,9.78,4.388,9.78,9.78s-4.388,9.78-9.78,9.78h-4.948V87.896z"/>
<g>
</g>
<g>
</g>
<g>
</g>
<g>
</g>
<g>
</g>
<g>
</g>
<g>
</g>
<g>
</g>
<g>
</g>
<g>
</g>
<g>
</g>
<g>
</g>
<g>
</g>
<g>
</g>
<g>
</g>
</svg>
